<svg xmlns="http://www.w3.org/2000/svg" viewBox="0 0 192 192" role="img" aria-label="FloodMind">
  <defs>
    <linearGradient id="bg" x1="0" y1="0" x2="1" y2="1">
      <stop offset="0%" stop-color="#0d7a6e"/>
      <stop offset="100%" stop-color="#085e54"/>
    </linearGradient>
  </defs>
  <rect width="192" height="192" rx="40" fill="url(#bg)"/>
  <path d="M36 68c9 0 13-9 22-9s13 9 22 9 13-9 22-9 13 9 22 9 13-9 22-9 13 9 22 9" fill="none" stroke="#e9fffd" stroke-width="10" stroke-linecap="round" opacity="0.92"/>
  <path d="M36 100c9 0 13-9 22-9s13 9 22 9 13-9 22-9 13 9 22 9 13-9 22-9 13 9 22 9" fill="none" stroke="#e9fffd" stroke-width="10" stroke-linecap="round" opacity="0.92"/>
  <path d="M36 132c9 0 13-9 22-9s13 9 22 9 13-9 22-9 13 9 22 9 13-9 22-9 13 9 22 9" fill="none" stroke="#e9fffd" stroke-width="10" stroke-linecap="round" opacity="0.92"/>
</svg>